Newsreader16pt-ExtraLightItalic.ufo
<glyph name="plus" format="2">
  <advance width="1000"/>
  <unicode hex="002B"/>
  <outline>
    <contour>
      <point x="371.0" y="79.0" type="line"/>
      <point x="417.0" y="79.0" type="line"/>
      <point x="635.0" y="793.0" type="line"/>
      <point x="589.0" y="793.0" type="line"/>
    </contour>
    <contour>
      <point x="152.0" y="454.0" type="line"/>
      <point x="138.0" y="410.0" type="line"/>
      <point x="852.0" y="410.0" type="line"/>
      <point x="866.0" y="454.0" type="line"/>
    </contour>
  </outline>
</glyph>
<glyph name="zero" format="2">
  <advance width="1100"/>
  <unicode hex="0030"/>
  <outline>
    <contour>
      <point x="214.0" y="383.0" type="curve" smooth="yes"/>
      <point x="214.0" y="775.0"/>
      <point x="463.0" y="1323.0"/>
      <point x="803.0" y="1323.0" type="curve" smooth="yes"/>
      <point x="951.0" y="1323.0"/>
      <point x="1036.0" y="1216.0"/>
      <point x="1036.0" y="957.0" type="curve" smooth="yes"/>
      <point x="1036.0" y="565.0"/>
      <point x="787.0" y="17.0"/>
      <point x="447.0" y="17.0" type="curve" smooth="yes"/>
      <point x="299.0" y="17.0"/>
      <point x="214.0" y="124.0"/>
    </contour>
    <contour>
      <point x="806.0" y="1360.0" type="curve" smooth="yes"/>
      <point x="409.0" y="1360.0"/>
      <point x="140.0" y="786.0"/>
      <point x="140.0" y="372.0" type="curve" smooth="yes"/>
      <point x="140.0" y="124.0"/>
      <point x="245.0" y="-20.0"/>
      <point x="444.0" y="-20.0" type="curve" smooth="yes"/>
      <point x="841.0" y="-20.0"/>
      <point x="1110.0" y="554.0"/>
      <point x="1110.0" y="968.0" type="curve" smooth="yes"/>
      <point x="1110.0" y="1216.0"/>
      <point x="1005.0" y="1360.0"/>
    </contour>
  </outline>
</glyph>
<glyph name="colon" format="2">
  <advance width="416"/>
  <unicode hex="003A"/>
  <outline>
    <contour>
      <point x="119.0" y="145.0" type="curve" smooth="yes"/>
      <point x="65.0" y="145.0"/>
      <point x="25.0" y="101.0"/>
      <point x="25.0" y="47.0" type="curve" smooth="yes"/>
      <point x="25.0" y="11.0"/>
      <point x="48.0" y="-15.0"/>
      <point x="86.0" y="-15.0" type="curve" smooth="yes"/>
      <point x="140.0" y="-15.0"/>
      <point x="180.0" y="29.0"/>
      <point x="180.0" y="83.0" type="curve" smooth="yes"/>
      <point x="180.0" y="119.0"/>
      <point x="157.0" y="145.0"/>
    </contour>
    <contour>
      <point x="329.0" y="863.0" type="curve" smooth="yes"/>
      <point x="275.0" y="863.0"/>
      <point x="235.0" y="819.0"/>
      <point x="235.0" y="765.0" type="curve" smooth="yes"/>
      <point x="235.0" y="729.0"/>
      <point x="258.0" y="703.0"/>
      <point x="296.0" y="703.0" type="curve" smooth="yes"/>
      <point x="350.0" y="703.0"/>
      <point x="390.0" y="747.0"/>
      <point x="390.0" y="801.0" type="curve" smooth="yes"/>
      <point x="390.0" y="837.0"/>
      <point x="367.0" y="863.0"/>
    </contour>
  </outline>
</glyph>
<glyph name="greater" format="2">
  <advance width="1000"/>
  <unicode hex="003E"/>
  <outline>
    <contour>
      <point x="914.0" y="452.0" type="line"/>
      <point x="-64.0" y="37.0" type="line"/>
      <point x="-81.0" y="-20.0" type="line"/>
      <point x="953.0" y="419.0" type="line"/>
      <point x="964.0" y="455.0" type="line"/>
      <point x="197.0" y="892.0" type="line"/>
      <point x="183.0" y="845.0" type="line"/>
      <point x="908.0" y="433.0" type="line"/>
    </contour>
  </outline>
</glyph>
<glyph name="question" format="2">
  <advance width="847"/>
  <unicode hex="003F"/>
  <outline>
    <contour>
      <point x="243.0" y="145.0" type="curve" smooth="yes"/>
      <point x="189.0" y="145.0"/>
      <point x="149.0" y="101.0"/>
      <point x="149.0" y="47.0" type="curve" smooth="yes"/>
      <point x="149.0" y="11.0"/>
      <point x="172.0" y="-15.0"/>
      <point x="210.0" y="-15.0" type="curve" smooth="yes"/>
      <point x="264.0" y="-15.0"/>
      <point x="304.0" y="29.0"/>
      <point x="304.0" y="83.0" type="curve" smooth="yes"/>
      <point x="304.0" y="119.0"/>
      <point x="281.0" y="145.0"/>
    </contour>
    <contour>
      <point x="486.0" y="1360.0" type="curve" smooth="yes"/>
      <point x="352.0" y="1360.0"/>
      <point x="324.0" y="1328.0"/>
      <point x="324.0" y="1291.0" type="curve" smooth="yes"/>
      <point x="324.0" y="1267.0"/>
      <point x="341.0" y="1248.0"/>
      <point x="377.0" y="1248.0" type="curve" smooth="yes"/>
      <point x="432.0" y="1248.0"/>
      <point x="463.0" y="1302.0"/>
      <point x="577.0" y="1302.0" type="curve" smooth="yes"/>
      <point x="702.0" y="1302.0"/>
      <point x="844.0" y="1173.0"/>
      <point x="844.0" y="988.0" type="curve" smooth="yes"/>
      <point x="844.0" y="804.0"/>
      <point x="741.0" y="684.0"/>
      <point x="384.0" y="718.0" type="curve"/>
      <point x="299.0" y="396.0" type="line"/>
      <point x="325.0" y="396.0" type="line"/>
      <point x="438.0" y="703.0" type="line"/>
      <point x="385.0" y="650.0" type="line"/>
      <point x="779.0" y="615.0"/>
      <point x="894.0" y="760.0"/>
      <point x="894.0" y="968.0" type="curve" smooth="yes"/>
      <point x="894.0" y="1189.0"/>
      <point x="701.0" y="1360.0"/>
    </contour>
  </outline>
</glyph>
<glyph name="b" format="2">
  <advance width="862"/>
  <unicode hex="0062"/>
  <anchor x="688.0" y="1340" name="UCtop"/>
  <anchor x="219.0" y="0" name="bottom"/>
  <outline>
    <contour>
      <point x="154" y="270" type="curve" smooth="yes"/>
      <point x="185" y="375" type="line" smooth="yes"/>
      <point x="239" y="557"/>
      <point x="449" y="806"/>
      <point x="612" y="806" type="curve" smooth="yes"/>
      <point x="701" y="806"/>
      <point x="743" y="742"/>
      <point x="743" y="625" type="curve" smooth="yes"/>
      <point x="743" y="339"/>
      <point x="483" y="13"/>
      <point x="273" y="13" type="curve" smooth="yes"/>
      <point x="182.0" y="13"/>
      <point x="138" y="71.0"/>
      <point x="138" y="165" type="curve" smooth="yes"/>
      <point x="138" y="198"/>
      <point x="143" y="234"/>
    </contour>
    <contour>
      <point x="407" y="1330" type="curve"/>
      <point x="90" y="276" type="line" smooth="yes"/>
      <point x="80" y="243"/>
      <point x="75" y="209"/>
      <point x="75" y="176" type="curve" smooth="yes"/>
      <point x="75.0" y="61.0"/>
      <point x="138.0" y="-20"/>
      <point x="273" y="-20" type="curve" smooth="yes"/>
      <point x="509" y="-20"/>
      <point x="824" y="304"/>
      <point x="824" y="658" type="curve" smooth="yes"/>
      <point x="824" y="786"/>
      <point x="767" y="872"/>
      <point x="642" y="872" type="curve" smooth="yes"/>
      <point x="505" y="872"/>
      <point x="356" y="748"/>
      <point x="202" y="480" type="curve"/>
      <point x="215" y="480" type="line"/>
      <point x="499" y="1419" type="line"/>
      <point x="482" y="1419" type="line"/>
      <point x="260" y="1379" type="line"/>
      <point x="256" y="1366" type="line"/>
      <point x="314" y="1352"/>
      <point x="369" y="1339"/>
    </contour>
  </outline>
</glyph>
<glyph name="i" format="2">
  <advance width="498"/>
  <unicode hex="0069"/>
  <anchor x="474.0" y="1340" name="top"/>
  <anchor x="156.0" y="0" name="bottom"/>
  <anchor x="334.0" y="0" name="right"/>
  <outline>
    <contour>
      <point x="102.0" y="59.0" type="line" smooth="yes"/>
      <point x="81.68611590032035" y="-0.2488286240656521"/>
      <point x="83.07692307692308" y="-20.0"/>
      <point x="143.0" y="-20.0" type="curve" smooth="yes"/>
      <point x="213.0" y="-20.0"/>
      <point x="315.0" y="27.0"/>
      <point x="453.0" y="175.0" type="curve"/>
      <point x="436.0" y="194.0" type="line"/>
      <point x="280.0" y="49.0"/>
      <point x="193.0" y="39.0"/>
      <point x="129.0" y="46.0" type="curve"/>
      <point x="155.0" y="23.0" type="line"/>
      <point x="419.0" y="793.0" type="line" smooth="yes"/>
      <point x="439.3138840996796" y="852.2488286240656"/>
      <point x="437.9230769230769" y="872.0"/>
      <point x="378.0" y="872.0" type="curve" smooth="yes"/>
      <point x="313.0" y="872.0"/>
      <point x="201.0" y="824.0"/>
      <point x="55.0" y="652.0" type="curve"/>
      <point x="73.0" y="634.0" type="line"/>
      <point x="234.0" y="796.0"/>
      <point x="324.0" y="812.0"/>
      <point x="392.0" y="807.0" type="curve"/>
      <point x="366.0" y="829.0" type="line"/>
    </contour>
    <contour>
      <point x="420.0" y="1341.0" type="curve" smooth="yes"/>
      <point x="420.0" y="1297.0"/>
      <point x="452.0" y="1264.0"/>
      <point x="497.0" y="1264.0" type="curve" smooth="yes"/>
      <point x="545.0" y="1264.0"/>
      <point x="574.0" y="1297.0"/>
      <point x="574.0" y="1341.0" type="curve" smooth="yes"/>
      <point x="574.0" y="1383.0"/>
      <point x="545.0" y="1415.0"/>
      <point x="497.0" y="1415.0" type="curve" smooth="yes"/>
      <point x="452.0" y="1415.0"/>
      <point x="420.0" y="1383.0"/>
    </contour>
  </outline>
</glyph>
<glyph name="k" format="2">
  <advance width="811"/>
  <unicode hex="006B"/>
  <anchor x="644.0" y="1340" name="UCtop"/>
  <anchor x="312.0" y="0" name="bottom"/>
  <outline>
    <contour>
      <point x="508.0" y="1419.0" type="line"/>
      <point x="491.0" y="1419.0" type="line"/>
      <point x="270.0" y="1379.0" type="line"/>
      <point x="266.0" y="1366.0" type="line"/>
      <point x="323.0" y="1352.41059602649"/>
      <point x="381.0" y="1338.5827814569536"/>
      <point x="417.0" y="1330.0" type="curve"/>
      <point x="23.0" y="0.0" type="line"/>
      <point x="88.0" y="0.0" type="line"/>
    </contour>
    <contour>
      <point x="228" y="484" type="line"/>
      <point x="380" y="65"/>
      <point x="437" y="-16"/>
      <point x="504" y="-16" type="curve" smooth="yes"/>
      <point x="559" y="-16"/>
      <point x="623" y="17"/>
      <point x="764" y="177" type="curve"/>
      <point x="743" y="198" type="line"/>
      <point x="624" y="71"/>
      <point x="568" y="37"/>
      <point x="525" y="37" type="curve" smooth="yes"/>
      <point x="481" y="37"/>
      <point x="414" y="136"/>
      <point x="275" y="526" type="curve"/>
      <point x="270" y="492" type="line"/>
      <point x="421" y="675"/>
      <point x="613" y="816"/>
      <point x="699" y="816" type="curve" smooth="yes"/>
      <point x="722.0" y="816.0"/>
      <point x="740" y="804"/>
      <point x="756" y="784" type="curve" smooth="yes"/>
      <point x="772.0" y="764.0"/>
      <point x="784" y="746"/>
      <point x="801" y="746" type="curve" smooth="yes"/>
      <point x="834" y="746"/>
      <point x="861" y="770"/>
      <point x="861" y="811" type="curve" smooth="yes"/>
      <point x="861" y="844"/>
      <point x="835" y="871"/>
      <point x="768" y="871" type="curve" smooth="yes"/>
      <point x="653" y="871"/>
      <point x="483" y="783"/>
      <point x="230" y="491" type="curve"/>
    </contour>
  </outline>
</glyph>
<glyph name="braceleft" format="2">
  <advance width="546"/>
  <unicode hex="007B"/>
  <outline>
    <contour>
      <point x="84.0" y="552.0" type="line"/>
      <point x="176.0" y="548.0" type="line" smooth="yes"/>
      <point x="237.0" y="545.0"/>
      <point x="261.0" y="517.0"/>
      <point x="261.0" y="472.0" type="curve" smooth="yes"/>
      <point x="261.0" y="329.0"/>
      <point x="72.0" y="62.0"/>
      <point x="72.0" y="-90.0" type="curve" smooth="yes"/>
      <point x="72.0" y="-175.0"/>
      <point x="113.0" y="-251.0"/>
      <point x="215.0" y="-264.0" type="curve" smooth="yes"/>
      <point x="277.0" y="-272.0" type="line"/>
      <point x="285.0" y="-243.0" type="line"/>
      <point x="238.0" y="-237.0" type="line" smooth="yes"/>
      <point x="166.0" y="-228.0"/>
      <point x="135.0" y="-187.0"/>
      <point x="135.0" y="-121.0" type="curve" smooth="yes"/>
      <point x="135.0" y="32.0"/>
      <point x="309.0" y="296.0"/>
      <point x="309.0" y="451.0" type="curve" smooth="yes"/>
      <point x="309.0" y="515.0"/>
      <point x="280.0" y="565.0"/>
      <point x="200.0" y="578.0" type="curve"/>
      <point x="192.0" y="556.0" type="line"/>
      <point x="332.0" y="570.0"/>
      <point x="389.0" y="649.0"/>
      <point x="428.0" y="778.0" type="curve" smooth="yes"/>
      <point x="467.0" y="907.0"/>
      <point x="472.0" y="1048.0"/>
      <point x="509.0" y="1173.0" type="curve" smooth="yes"/>
      <point x="546.0" y="1298.0"/>
      <point x="614.0" y="1358.0"/>
      <point x="724.0" y="1371.0" type="curve" smooth="yes"/>
      <point x="785.0" y="1378.0" type="line"/>
      <point x="785.0" y="1410.0" type="line"/>
      <point x="718.0" y="1402.0" type="line" smooth="yes"/>
      <point x="551.0" y="1382.0"/>
      <point x="462.0" y="1273.0"/>
      <point x="425.0" y="1150.0" type="curve" smooth="yes"/>
      <point x="388.0" y="1027.0"/>
      <point x="395.0" y="880.0"/>
      <point x="360.0" y="757.0" type="curve" smooth="yes"/>
      <point x="325.0" y="634.0"/>
      <point x="279.0" y="593.0"/>
      <point x="177.0" y="589.0" type="curve" smooth="yes"/>
      <point x="94.0" y="585.0" type="line"/>
    </contour>
  </outline>
</glyph>
<glyph name="questiondown" format="2">
  <advance width="842"/>
  <unicode hex="00BF"/>
  <outline>
    <contour>
      <point x="617.0" y="702.0" type="curve" smooth="yes"/>
      <point x="671.0" y="702.0"/>
      <point x="711.0" y="746.0"/>
      <point x="711.0" y="800.0" type="curve" smooth="yes"/>
      <point x="711.0" y="836.0"/>
      <point x="688.0" y="862.0"/>
      <point x="650.0" y="862.0" type="curve" smooth="yes"/>
      <point x="596.0" y="862.0"/>
      <point x="556.0" y="818.0"/>
      <point x="556.0" y="764.0" type="curve" smooth="yes"/>
      <point x="556.0" y="728.0"/>
      <point x="579.0" y="702.0"/>
    </contour>
    <contour>
      <point x="374.0" y="-513.0" type="curve" smooth="yes"/>
      <point x="508.0" y="-513.0"/>
      <point x="536.0" y="-481.0"/>
      <point x="536.0" y="-444.0" type="curve" smooth="yes"/>
      <point x="536.0" y="-420.0"/>
      <point x="519.0" y="-401.0"/>
      <point x="483.0" y="-401.0" type="curve" smooth="yes"/>
      <point x="428.0" y="-401.0"/>
      <point x="397.0" y="-455.0"/>
      <point x="283.0" y="-455.0" type="curve" smooth="yes"/>
      <point x="158.0" y="-455.0"/>
      <point x="16.0" y="-326.0"/>
      <point x="16.0" y="-141.0" type="curve" smooth="yes"/>
      <point x="16.0" y="43.0"/>
      <point x="119.0" y="163.0"/>
      <point x="476.0" y="129.0" type="curve"/>
      <point x="561.0" y="451.0" type="line"/>
      <point x="535.0" y="451.0" type="line"/>
      <point x="422.0" y="144.0" type="line"/>
      <point x="475.0" y="197.0" type="line"/>
      <point x="81.0" y="232.0"/>
      <point x="-34.0" y="87.0"/>
      <point x="-34.0" y="-121.0" type="curve" smooth="yes"/>
      <point x="-34.0" y="-342.0"/>
      <point x="159.0" y="-513.0"/>
    </contour>
  </outline>
</glyph>
<glyph name="ccedilla" format="2">
  <advance width="663"/>
  <unicode hex="00E7"/>
  <outline>
    <contour>
      <point x="52.0" y="-530.0" type="curve" smooth="yes"/>
      <point x="201.0" y="-530.0"/>
      <point x="309.0" y="-438.0"/>
      <point x="309.0" y="-317.0" type="curve" smooth="yes"/>
      <point x="309.0" y="-257.0"/>
      <point x="258.0" y="-195.0"/>
      <point x="128.0" y="-156.0" type="curve"/>
      <point x="136.0" y="-176.0" type="line"/>
      <point x="315.0" y="0.0" type="line"/>
      <point x="273.0" y="0.0" type="line"/>
      <point x="65.0" y="-210.0" type="line"/>
      <point x="64.0" y="-214.0" type="line"/>
      <point x="197.0" y="-250.0"/>
      <point x="248.0" y="-298.0"/>
      <point x="248.0" y="-354.0" type="curve" smooth="yes"/>
      <point x="248.0" y="-433.0"/>
      <point x="186.0" y="-490.0"/>
      <point x="89.0" y="-490.0" type="curve" smooth="yes"/>
      <point x="16.0" y="-490.0"/>
      <point x="7.0" y="-428.0"/>
      <point x="-35.0" y="-428.0" type="curve" smooth="yes"/>
      <point x="-54.0" y="-428.0"/>
      <point x="-73.0" y="-446.0"/>
      <point x="-73.0" y="-470.0" type="curve" smooth="yes"/>
      <point x="-73.0" y="-503.0"/>
      <point x="-40.0" y="-530.0"/>
    </contour>
    <contour>
      <point x="497" y="833" type="curve" smooth="yes"/>
      <point x="541" y="833"/>
      <point x="569.0" y="809"/>
      <point x="590" y="785" type="curve" smooth="yes"/>
      <point x="611" y="761"/>
      <point x="623" y="737"/>
      <point x="635" y="737" type="curve" smooth="yes"/>
      <point x="665" y="737"/>
      <point x="681" y="757"/>
      <point x="681" y="782" type="curve" smooth="yes"/>
      <point x="681" y="835"/>
      <point x="630" y="872"/>
      <point x="534" y="872" type="curve" smooth="yes"/>
      <point x="356" y="872"/>
      <point x="58" y="648"/>
      <point x="58" y="216" type="curve" smooth="yes"/>
      <point x="58" y="54"/>
      <point x="136" y="-20"/>
      <point x="247" y="-20" type="curve" smooth="yes"/>
      <point x="373" y="-20"/>
      <point x="468" y="49"/>
      <point x="580" y="277" type="curve"/>
      <point x="551" y="277" type="line"/>
      <point x="447" y="97"/>
      <point x="356" y="44"/>
      <point x="267" y="44" type="curve" smooth="yes"/>
      <point x="173" y="44"/>
      <point x="129" y="104"/>
      <point x="129" y="253" type="curve" smooth="yes"/>
      <point x="129" y="594"/>
      <point x="344" y="833"/>
    </contour>
  </outline>
</glyph>
<glyph name="Eogonek" format="2">
  <advance width="1155"/>
  <unicode hex="0118"/>
  <outline>
    <contour>
      <point x="501.0" y="1290.0" type="line"/>
      <point x="121.0" y="50.0" type="line"/>
      <point x="-47.0" y="22.0" type="line"/>
      <point x="-53.0" y="0.0" type="line"/>
      <point x="178.0" y="0.0" type="line"/>
      <point x="588.0" y="1340.0" type="line"/>
      <point x="348.0" y="1340.0" type="line"/>
      <point x="342.0" y="1318.0" type="line"/>
    </contour>
    <contour>
      <point x="759.0" y="434.0" type="line"/>
      <point x="783.0" y="434.0" type="line"/>
      <point x="851.0" y="701.0" type="line"/>
      <point x="947.0" y="969.0" type="line"/>
      <point x="923.0" y="969.0" type="line"/>
      <point x="799.0" y="732.0" type="line"/>
      <point x="378.0" y="720.0" type="line"/>
      <point x="365.0" y="682.0" type="line"/>
      <point x="782.0" y="673.0" type="line"/>
    </contour>
    <contour>
      <point x="1209.0" y="1005.0" type="line"/>
      <point x="1260.0" y="1377.0" type="line"/>
      <point x="1251.0" y="1377.0" type="line"/>
      <point x="1175.0" y="1340.0" type="line"/>
      <point x="518.0" y="1340.0" type="line"/>
      <point x="504.0" y="1298.0" type="line"/>
      <point x="1201.0" y="1298.0" type="line"/>
      <point x="1157.0" y="1313.0" type="line"/>
      <point x="1186.0" y="1004.0" type="line"/>
    </contour>
    <contour>
      <point x="863.0" y="-46.0" type="line"/>
      <point x="871.0" y="-46.0" type="line"/>
      <point x="1082.0" y="338.0" type="line"/>
      <point x="1063.0" y="349.0" type="line"/>
      <point x="786.0" y="17.0" type="line"/>
      <point x="858.0" y="42.0" type="line"/>
      <point x="122.0" y="42.0" type="line"/>
      <point x="108.0" y="0.0" type="line"/>
      <point x="803.0" y="0.0" type="line"/>
    </contour>
    <contour>
      <point x="530.0" y="-382.0" type="curve" smooth="yes"/>
      <point x="530.0" y="-322.0"/>
      <point x="548.0" y="-272.0"/>
      <point x="698.0" y="-118.0" type="curve" smooth="yes"/>
      <point x="829.0" y="17.0" type="line"/>
      <point x="796.0" y="17.0" type="line"/>
      <point x="636.0" y="-136.0" type="line" smooth="yes"/>
      <point x="488.0" y="-278.0"/>
      <point x="465.0" y="-334.0"/>
      <point x="465.0" y="-404.0" type="curve" smooth="yes"/>
      <point x="465.0" y="-481.0"/>
      <point x="516.0" y="-530.0"/>
      <point x="604.0" y="-530.0" type="curve" smooth="yes"/>
      <point x="669.0" y="-530.0"/>
      <point x="720.0" y="-499.0"/>
      <point x="807.0" y="-406.0" type="curve"/>
      <point x="794.0" y="-392.0" type="line"/>
      <point x="726.0" y="-456.0"/>
      <point x="682.0" y="-474.0"/>
      <point x="629.0" y="-474.0" type="curve" smooth="yes"/>
      <point x="577.0" y="-474.0"/>
      <point x="530.0" y="-445.0"/>
    </contour>
  </outline>
</glyph>
<glyph name="Scedilla" format="2">
  <advance width="963"/>
  <unicode hex="015E"/>
  <outline>
    <contour>
      <point x="993.0" y="1182.0" type="curve"/>
      <point x="920.0" y="1275.0" type="line"/>
      <point x="962.0" y="965.0" type="line"/>
      <point x="986.0" y="965.0" type="line"/>
      <point x="1027.0" y="1386.0" type="line"/>
      <point x="1018.0" y="1386.0" type="line"/>
      <point x="934.0" y="1303.0" type="line"/>
      <point x="991.0" y="1300.0" type="line"/>
      <point x="918.0" y="1339.0"/>
      <point x="835.0" y="1360.0"/>
      <point x="724.0" y="1360.0" type="curve" smooth="yes"/>
      <point x="457.0" y="1360.0"/>
      <point x="315.0" y="1192.0"/>
      <point x="315.0" y="1011.0" type="curve" smooth="yes"/>
      <point x="315.0" y="844.0"/>
      <point x="421.0" y="773.0"/>
      <point x="538.0" y="703.0" type="curve" smooth="yes"/>
      <point x="655.0" y="633.0"/>
      <point x="784.0" y="565.0"/>
      <point x="784.0" y="385.0" type="curve" smooth="yes"/>
      <point x="784.0" y="168.0"/>
      <point x="623.0" y="19.0"/>
      <point x="355.0" y="19.0" type="curve" smooth="yes"/>
      <point x="269.0" y="19.0"/>
      <point x="183.0" y="31.0"/>
      <point x="107.0" y="85.0" type="curve"/>
      <point x="187.0" y="19.0" type="line"/>
      <point x="95.0" y="359.0" type="line"/>
      <point x="69.0" y="359.0" type="line"/>
      <point x="86.0" y="27.0" type="line"/>
      <point x="171.0" y="-8.0"/>
      <point x="236.0" y="-20.0"/>
      <point x="349.0" y="-20.0" type="curve" smooth="yes"/>
      <point x="649.0" y="-20.0"/>
      <point x="847.0" y="150.0"/>
      <point x="847.0" y="416.0" type="curve" smooth="yes"/>
      <point x="847.0" y="612.0"/>
      <point x="704.0" y="685.0"/>
      <point x="585.0" y="758.0" type="curve" smooth="yes"/>
      <point x="466.0" y="831.0"/>
      <point x="375.0" y="896.0"/>
      <point x="375.0" y="1040.0" type="curve" smooth="yes"/>
      <point x="375.0" y="1190.0"/>
      <point x="483.0" y="1326.0"/>
      <point x="706.0" y="1326.0" type="curve" smooth="yes"/>
      <point x="800.0" y="1326.0"/>
      <point x="893.0" y="1293.0"/>
    </contour>
    <contour>
      <point x="181.0" y="-530.0" type="curve" smooth="yes"/>
      <point x="330.0" y="-530.0"/>
      <point x="438.0" y="-438.0"/>
      <point x="438.0" y="-317.0" type="curve" smooth="yes"/>
      <point x="438.0" y="-257.0"/>
      <point x="387.0" y="-195.0"/>
      <point x="257.0" y="-156.0" type="curve"/>
      <point x="265.0" y="-176.0" type="line"/>
      <point x="444.0" y="0.0" type="line"/>
      <point x="402.0" y="0.0" type="line"/>
      <point x="194.0" y="-210.0" type="line"/>
      <point x="193.0" y="-214.0" type="line"/>
      <point x="326.0" y="-250.0"/>
      <point x="377.0" y="-298.0"/>
      <point x="377.0" y="-354.0" type="curve" smooth="yes"/>
      <point x="377.0" y="-433.0"/>
      <point x="315.0" y="-490.0"/>
      <point x="218.0" y="-490.0" type="curve" smooth="yes"/>
      <point x="145.0" y="-490.0"/>
      <point x="136.0" y="-428.0"/>
      <point x="94.0" y="-428.0" type="curve" smooth="yes"/>
      <point x="75.0" y="-428.0"/>
      <point x="56.0" y="-446.0"/>
      <point x="56.0" y="-470.0" type="curve" smooth="yes"/>
      <point x="56.0" y="-503.0"/>
      <point x="89.0" y="-530.0"/>
    </contour>
  </outline>
</glyph>
<glyph name="scedilla" format="2">
  <advance width="581"/>
  <unicode hex="015F"/>
  <outline>
    <contour>
      <point x="-20.0" y="-530.0" type="curve" smooth="yes"/>
      <point x="129.0" y="-530.0"/>
      <point x="237.0" y="-438.0"/>
      <point x="237.0" y="-317.0" type="curve" smooth="yes"/>
      <point x="237.0" y="-257.0"/>
      <point x="186.0" y="-195.0"/>
      <point x="56.0" y="-156.0" type="curve"/>
      <point x="64.0" y="-176.0" type="line"/>
      <point x="243.0" y="0.0" type="line"/>
      <point x="201.0" y="0.0" type="line"/>
      <point x="-7.0" y="-210.0" type="line"/>
      <point x="-8.0" y="-214.0" type="line"/>
      <point x="125.0" y="-250.0"/>
      <point x="176.0" y="-298.0"/>
      <point x="176.0" y="-354.0" type="curve" smooth="yes"/>
      <point x="176.0" y="-433.0"/>
      <point x="114.0" y="-490.0"/>
      <point x="17.0" y="-490.0" type="curve" smooth="yes"/>
      <point x="-56.0" y="-490.0"/>
      <point x="-65.0" y="-428.0"/>
      <point x="-107.0" y="-428.0" type="curve" smooth="yes"/>
      <point x="-126.0" y="-428.0"/>
      <point x="-145.0" y="-446.0"/>
      <point x="-145.0" y="-470.0" type="curve" smooth="yes"/>
      <point x="-145.0" y="-503.0"/>
      <point x="-112.0" y="-530.0"/>
    </contour>
    <contour>
      <point x="57" y="125" type="curve" smooth="yes"/>
      <point x="33" y="125"/>
      <point x="11" y="103"/>
      <point x="11" y="76" type="curve" smooth="yes"/>
      <point x="11" y="31.0"/>
      <point x="66.0" y="-20"/>
      <point x="169" y="-20" type="curve" smooth="yes"/>
      <point x="336" y="-20"/>
      <point x="446" y="101"/>
      <point x="446" y="231" type="curve" smooth="yes"/>
      <point x="446" y="306"/>
      <point x="414" y="379"/>
      <point x="334" y="478" type="curve" smooth="yes"/>
      <point x="254" y="577"/>
      <point x="230" y="625"/>
      <point x="230" y="678" type="curve" smooth="yes"/>
      <point x="230" y="785"/>
      <point x="300" y="837"/>
      <point x="390" y="837" type="curve" smooth="yes"/>
      <point x="433" y="837"/>
      <point x="465" y="817"/>
      <point x="489" y="786" type="curve" smooth="yes"/>
      <point x="513" y="755"/>
      <point x="524" y="724"/>
      <point x="538" y="724" type="curve" smooth="yes"/>
      <point x="568" y="724"/>
      <point x="584" y="744"/>
      <point x="584" y="769" type="curve" smooth="yes"/>
      <point x="584" y="817"/>
      <point x="523" y="872"/>
      <point x="418" y="872" type="curve" smooth="yes"/>
      <point x="286" y="872"/>
      <point x="174" y="788"/>
      <point x="174" y="645" type="curve" smooth="yes"/>
      <point x="174" y="588"/>
      <point x="196" y="528"/>
      <point x="281" y="422" type="curve" smooth="yes"/>
      <point x="366" y="316"/>
      <point x="390" y="253"/>
      <point x="390" y="192" type="curve" smooth="yes"/>
      <point x="390" y="96"/>
      <point x="310" y="19"/>
      <point x="209" y="19" type="curve" smooth="yes"/>
      <point x="167.0" y="19"/>
      <point x="136" y="36"/>
      <point x="112" y="66" type="curve" smooth="yes"/>
      <point x="88.0" y="96.0"/>
      <point x="75" y="125"/>
    </contour>
  </outline>
</glyph>
<glyph name="uni018F" format="2">
  <advance width="1327"/>
  <unicode hex="018F"/>
  <outline>
    <contour>
      <point x="148.0" y="527.0" type="line"/>
      <point x="132.0" y="459.0"/>
      <point x="125.0" y="397.0"/>
      <point x="125.0" y="341.0" type="curve" smooth="yes"/>
      <point x="125.0" y="104.0"/>
      <point x="263.0" y="-20.0"/>
      <point x="523.0" y="-20.0" type="curve" smooth="yes"/>
      <point x="967.0" y="-20.0"/>
      <point x="1317.0" y="383.0"/>
      <point x="1317.0" y="868.0" type="curve" smooth="yes"/>
      <point x="1317.0" y="1174.0"/>
      <point x="1147.0" y="1360.0"/>
      <point x="824.0" y="1360.0" type="curve" smooth="yes"/>
      <point x="629.0" y="1360.0"/>
      <point x="498.0" y="1309.0"/>
      <point x="277.0" y="1156.0" type="curve"/>
      <point x="295.0" y="1125.0" type="line"/>
      <point x="495.0" y="1263.0"/>
      <point x="609.0" y="1304.0"/>
      <point x="812.0" y="1304.0" type="curve" smooth="yes"/>
      <point x="1080.0" y="1304.0"/>
      <point x="1243.0" y="1128.0"/>
      <point x="1243.0" y="836.0" type="curve" smooth="yes"/>
      <point x="1243.0" y="397.0"/>
      <point x="942.0" y="20.0"/>
      <point x="534.0" y="20.0" type="curve" smooth="yes"/>
      <point x="303.0" y="20.0"/>
      <point x="194.0" y="134.0"/>
      <point x="194.0" y="330.0" type="curve" smooth="yes"/>
      <point x="194.0" y="384.0"/>
      <point x="202.0" y="445.0"/>
      <point x="219.0" y="512.0" type="curve"/>
      <point x="163.0" y="485.0" type="line"/>
      <point x="1187.0" y="485.0" type="line"/>
      <point x="1201.0" y="527.0" type="line"/>
    </contour>
  </outline>
</glyph>
<glyph name="uni0259" format="2">
  <advance width="705"/>
  <unicode hex="0259"/>
  <outline>
    <contour>
      <point x="187.0" y="21.0" type="curve" smooth="yes"/>
      <point x="98.0" y="21.0"/>
      <point x="75.0" y="72.0"/>
      <point x="75.0" y="137.0" type="curve" smooth="yes"/>
      <point x="75.0" y="209.0"/>
      <point x="97.0" y="268.0"/>
      <point x="576.0" y="423.0" type="curve"/>
      <point x="579.0" y="453.0" type="line"/>
      <point x="376.0" y="390.0"/>
      <point x="189.0" y="326.0"/>
      <point x="54.0" y="265.0" type="curve"/>
      <point x="20.0" y="221.0"/>
      <point x="4.0" y="171.0"/>
      <point x="4.0" y="119.0" type="curve" smooth="yes"/>
      <point x="4.0" y="44.0"/>
      <point x="49.0" y="-20.0"/>
      <point x="157.0" y="-20.0" type="curve" smooth="yes"/>
      <point x="416.0" y="-20.0"/>
      <point x="651.0" y="284.0"/>
      <point x="651.0" y="636.0" type="curve" smooth="yes"/>
      <point x="651.0" y="808.0"/>
      <point x="561.0" y="872.0"/>
      <point x="454.0" y="872.0" type="curve" smooth="yes"/>
      <point x="338.0" y="872.0"/>
      <point x="234.0" y="820.0"/>
      <point x="108.0" y="575.0" type="curve"/>
      <point x="138.0" y="575.0" type="line"/>
      <point x="253.0" y="770.0"/>
      <point x="351.0" y="808.0"/>
      <point x="429.0" y="808.0" type="curve" smooth="yes"/>
      <point x="516.0" y="808.0"/>
      <point x="579.0" y="762.0"/>
      <point x="579.0" y="599.0" type="curve" smooth="yes"/>
      <point x="579.0" y="250.0"/>
      <point x="380.0" y="21.0"/>
    </contour>
  </outline>
</glyph>
<glyph name="uni20A6" format="2">
  <advance width="1100"/>
  <unicode hex="20A6"/>
  <outline>
    <contour>
      <point x="1123.0" y="556.0" type="line"/>
      <point x="65.0" y="556.0" type="line"/>
      <point x="49.0" y="506.0" type="line"/>
      <point x="1108.0" y="506.0" type="line"/>
    </contour>
    <contour>
      <point x="1211.0" y="843.0" type="line"/>
      <point x="152.0" y="843.0" type="line"/>
      <point x="137.0" y="793.0" type="line"/>
      <point x="1195.0" y="793.0" type="line"/>
    </contour>
    <contour>
      <point x="1164.0" y="1288.0" type="line"/>
      <point x="1337.0" y="1318.0" type="line"/>
      <point x="1344.0" y="1340.0" type="line"/>
      <point x="975.0" y="1340.0" type="line"/>
      <point x="968.0" y="1318.0" type="line"/>
      <point x="1123.0" y="1288.0" type="line"/>
      <point x="741.0" y="40.0" type="line"/>
      <point x="779.0" y="69.0" type="line"/>
      <point x="568.0" y="1340.0" type="line"/>
      <point x="322.0" y="1340.0" type="line"/>
      <point x="316.0" y="1318.0" type="line"/>
      <point x="481.0" y="1281.0" type="line"/>
      <point x="105.0" y="52.0" type="line"/>
      <point x="-67.0" y="22.0" type="line"/>
      <point x="-74.0" y="0.0" type="line"/>
      <point x="295.0" y="0.0" type="line"/>
      <point x="301.0" y="22.0" type="line"/>
      <point x="147.0" y="52.0" type="line"/>
      <point x="529.0" y="1300.0" type="line"/>
      <point x="506.0" y="1302.0" type="line"/>
      <point x="730.0" y="-19.0" type="line"/>
      <point x="765.0" y="-19.0" type="line"/>
    </contour>
  </outline>
</glyph>
<glyph name="dollar.lf" format="2">
  <advance width="946"/>
  <outline>
    <contour>
      <point x="369.0" y="-195.0" type="line"/>
      <point x="419.0" y="-195.0" type="line"/>
      <point x="948.0" y="1535.0" type="line"/>
      <point x="898.0" y="1535.0" type="line"/>
    </contour>
    <contour>
      <point x="142.0" y="-195.0" type="line"/>
      <point x="192.0" y="-195.0" type="line"/>
      <point x="721.0" y="1535.0" type="line"/>
      <point x="671.0" y="1535.0" type="line"/>
    </contour>
    <contour>
      <point x="332.0" y="11.0" type="curve" smooth="yes"/>
      <point x="143.0" y="11.0"/>
      <point x="98.0" y="166.0"/>
      <point x="31.0" y="166.0" type="curve" smooth="yes"/>
      <point x="0.0" y="166.0"/>
      <point x="-17.0" y="142.0"/>
      <point x="-17.0" y="116.0" type="curve" smooth="yes"/>
      <point x="-17.0" y="55.0"/>
      <point x="66.0" y="-20.0"/>
      <point x="325.0" y="-20.0" type="curve" smooth="yes"/>
      <point x="610.0" y="-20.0"/>
      <point x="833.0" y="128.0"/>
      <point x="833.0" y="406.0" type="curve" smooth="yes"/>
      <point x="833.0" y="768.0"/>
      <point x="342.0" y="686.0"/>
      <point x="342.0" y="1014.0" type="curve" smooth="yes"/>
      <point x="342.0" y="1191.0"/>
      <point x="469.0" y="1327.0"/>
      <point x="709.0" y="1327.0" type="curve" smooth="yes"/>
      <point x="891.0" y="1327.0"/>
      <point x="938.0" y="1164.0"/>
      <point x="1001.0" y="1164.0" type="curve" smooth="yes"/>
      <point x="1035.0" y="1164.0"/>
      <point x="1050.0" y="1189.0"/>
      <point x="1050.0" y="1211.0" type="curve" smooth="yes"/>
      <point x="1050.0" y="1266.0"/>
      <point x="957.0" y="1360.0"/>
      <point x="727.0" y="1360.0" type="curve" smooth="yes"/>
      <point x="448.0" y="1360.0"/>
      <point x="288.0" y="1192.0"/>
      <point x="288.0" y="989.0" type="curve" smooth="yes"/>
      <point x="288.0" y="632.0"/>
      <point x="775.0" y="713.0"/>
      <point x="775.0" y="377.0" type="curve" smooth="yes"/>
      <point x="775.0" y="148.0"/>
      <point x="602.0" y="11.0"/>
    </contour>
  </outline>
</glyph>
<glyph name="florin.lf" format="2">
  <advance width="998"/>
  <outline>
    <contour>
      <point x="228.0" y="653.0" type="line"/>
      <point x="923.0" y="653.0" type="line"/>
      <point x="923.0" y="703.0" type="line"/>
      <point x="228.0" y="703.0" type="line"/>
    </contour>
    <contour>
      <point x="85.0" y="-270.0" type="curve" smooth="yes"/>
      <point x="256.0" y="-270.0"/>
      <point x="460.0" y="-177.0"/>
      <point x="528.0" y="227.0" type="curve" smooth="yes"/>
      <point x="646.0" y="933.0" type="line" smooth="yes"/>
      <point x="696.0" y="1234.0"/>
      <point x="845.0" y="1322.0"/>
      <point x="974.0" y="1322.0" type="curve" smooth="yes"/>
      <point x="1071.0" y="1322.0"/>
      <point x="1090.0" y="1232.0"/>
      <point x="1147.0" y="1232.0" type="curve" smooth="yes"/>
      <point x="1175.0" y="1232.0"/>
      <point x="1194.0" y="1251.0"/>
      <point x="1194.0" y="1275.0" type="curve" smooth="yes"/>
      <point x="1194.0" y="1310.0"/>
      <point x="1167.0" y="1360.0"/>
      <point x="1015.0" y="1360.0" type="curve" smooth="yes"/>
      <point x="842.0" y="1360.0"/>
      <point x="631.0" y="1268.0"/>
      <point x="563.0" y="863.0" type="curve" smooth="yes"/>
      <point x="445.0" y="157.0" type="line" smooth="yes"/>
      <point x="395.0" y="-144.0"/>
      <point x="253.0" y="-235.0"/>
      <point x="125.0" y="-235.0" type="curve" smooth="yes"/>
      <point x="19.0" y="-235.0"/>
      <point x="-12.0" y="-140.0"/>
      <point x="-67.0" y="-140.0" type="curve" smooth="yes"/>
      <point x="-95.0" y="-140.0"/>
      <point x="-114.0" y="-161.0"/>
      <point x="-114.0" y="-187.0" type="curve" smooth="yes"/>
      <point x="-114.0" y="-223.0"/>
      <point x="-67.0" y="-270.0"/>
    </contour>
  </outline>
</glyph>
<glyph name="one.lf" format="2">
  <advance width="622"/>
  <outline>
    <contour>
      <point x="194.0" y="51.0" type="line"/>
      <point x="0.0" y="22.0" type="line"/>
      <point x="-6.0" y="0.0" type="line"/>
      <point x="420.0" y="0.0" type="line"/>
      <point x="427.0" y="22.0" type="line"/>
      <point x="264.0" y="51.0" type="line"/>
      <point x="664.0" y="1360.0" type="line"/>
      <point x="649.0" y="1360.0" type="line"/>
      <point x="260.0" y="1183.0" type="line"/>
      <point x="267.0" y="1159.0" type="line"/>
      <point x="592.0" y="1259.0" type="line"/>
      <point x="569.0" y="1279.0" type="line"/>
    </contour>
  </outline>
</glyph>
<glyph name="three.lf" format="2">
  <advance width="944"/>
  <outline>
    <contour>
      <point x="332.0" y="22.0" type="curve" smooth="yes"/>
      <point x="123.0" y="22.0"/>
      <point x="117.0" y="147.0"/>
      <point x="42.0" y="147.0" type="curve" smooth="yes"/>
      <point x="9.0" y="147.0"/>
      <point x="-9.0" y="127.0"/>
      <point x="-9.0" y="101.0" type="curve" smooth="yes"/>
      <point x="-9.0" y="41.0"/>
      <point x="98.0" y="-20.0"/>
      <point x="285.0" y="-20.0" type="curve" smooth="yes"/>
      <point x="613.0" y="-20.0"/>
      <point x="857.0" y="237.0"/>
      <point x="857.0" y="511.0" type="curve" smooth="yes"/>
      <point x="857.0" y="665.0"/>
      <point x="754.0" y="777.0"/>
      <point x="579.0" y="754.0" type="curve"/>
      <point x="580.0" y="747.0" type="line"/>
      <point x="846.0" y="862.0"/>
      <point x="936.0" y="966.0"/>
      <point x="936.0" y="1127.0" type="curve" smooth="yes"/>
      <point x="936.0" y="1268.0"/>
      <point x="843.0" y="1360.0"/>
      <point x="677.0" y="1360.0" type="curve" smooth="yes"/>
      <point x="493.0" y="1360.0"/>
      <point x="357.0" y="1245.0"/>
      <point x="285.0" y="1030.0" type="curve"/>
      <point x="311.0" y="1023.0" type="line"/>
      <point x="387.0" y="1228.0"/>
      <point x="516.0" y="1306.0"/>
      <point x="661.0" y="1306.0" type="curve" smooth="yes"/>
      <point x="795.0" y="1306.0"/>
      <point x="866.0" y="1224.0"/>
      <point x="866.0" y="1113.0" type="curve" smooth="yes"/>
      <point x="866.0" y="942.0"/>
      <point x="768.0" y="832.0"/>
      <point x="366.0" y="690.0" type="curve"/>
      <point x="375.0" y="662.0" type="line"/>
      <point x="452.0" y="687.0" type="line" smooth="yes"/>
      <point x="654.0" y="753.0"/>
      <point x="776.0" y="672.0"/>
      <point x="776.0" y="492.0" type="curve" smooth="yes"/>
      <point x="776.0" y="219.0"/>
      <point x="569.0" y="22.0"/>
    </contour>
  </outline>
</glyph>
<glyph name="uni0311.case" format="2">
  <anchor x="279" y="1340.0" name="_UCtop"/>
  <anchor x="394" y="1716" name="UCtop"/>
  <outline>
    <contour>
      <point x="382.0" y="1665.0" type="curve" smooth="yes"/>
      <point x="493.0" y="1665.0"/>
      <point x="524.0" y="1611.0"/>
      <point x="520.0" y="1476.0" type="curve"/>
      <point x="550.0" y="1476.0" type="line"/>
      <point x="559.0" y="1676.0"/>
      <point x="515.0" y="1723.0"/>
      <point x="388.0" y="1723.0" type="curve" smooth="yes"/>
      <point x="261.0" y="1723.0"/>
      <point x="204.0" y="1676.0"/>
      <point x="92.0" y="1476.0" type="curve"/>
      <point x="129.0" y="1476.0" type="line"/>
      <point x="203.0" y="1608.0"/>
      <point x="271.0" y="1665.0"/>
    </contour>
  </outline>
</glyph>
<glyph name="uni20BA.lf" format="2">
  <advance width="1076"/>
  <outline>
    <contour>
      <point x="801.0" y="-46.0" type="line"/>
      <point x="992.0" y="338.0" type="line"/>
      <point x="973.0" y="345.0" type="line"/>
      <point x="716.0" y="17.0" type="line"/>
      <point x="775.0" y="42.0" type="line"/>
      <point x="203.0" y="42.0" type="line"/>
      <point x="190.0" y="0.0" type="line"/>
      <point x="732.0" y="0.0" type="line"/>
      <point x="794.0" y="-46.0" type="line"/>
    </contour>
    <contour>
      <point x="654.0" y="1289.0" type="line"/>
      <point x="835.0" y="1318.0" type="line"/>
      <point x="842.0" y="1340.0" type="line"/>
      <point x="427.0" y="1340.0" type="line"/>
      <point x="421.0" y="1318.0" type="line"/>
      <point x="584.0" y="1289.0" type="line"/>
      <point x="206.0" y="53.0" type="line"/>
      <point x="24.0" y="22.0" type="line"/>
      <point x="17.0" y="0.0" type="line"/>
      <point x="260.0" y="0.0" type="line"/>
    </contour>
    <contour>
      <point x="388.0" y="464.0" type="line"/>
      <point x="798.0" y="676.0" type="line"/>
      <point x="815.0" y="732.0" type="line"/>
      <point x="406.0" y="521.0" type="line"/>
      <point x="368.0" y="511.0" type="line"/>
      <point x="108.0" y="377.0" type="line"/>
      <point x="91.0" y="320.0" type="line"/>
      <point x="351.0" y="455.0" type="line"/>
    </contour>
    <contour>
      <point x="469.0" y="762.0" type="line"/>
      <point x="879.0" y="974.0" type="line"/>
      <point x="896.0" y="1030.0" type="line"/>
      <point x="487.0" y="819.0" type="line"/>
      <point x="449.0" y="809.0" type="line"/>
      <point x="189.0" y="675.0" type="line"/>
      <point x="172.0" y="618.0" type="line"/>
      <point x="432.0" y="753.0" type="line"/>
    </contour>
  </outline>
</glyph>
